<?xml version="1.0" encoding="utf-8"?>
<!-- Generator: Adobe Illustrator 21.0.0, SVG Export Plug-In . SVG Version: 6.00 Build 0)  -->
<svg version="1.1" id="Capa_1" xmlns="http://www.w3.org/2000/svg" xmlns:xlink="http://www.w3.org/1999/xlink" x="0px" y="0px"
	 viewBox="0 0 512 512" style="enable-background:new 0 0 512 512;" xml:space="preserve">
<style type="text/css">
	.st0{fill:#FAC574;}
	.st1{fill:#FB4A59;}
	.st2{fill:#F82F40;}
	.st3{fill:#FCDDB3;}
	.st4{fill:#FDF6ED;}
	.st5{fill:#FBCC85;}
</style>
<g>
	<g>
		<g>
			<path class="st0" d="M165.5,295.4l-67.1,67.1c-4.3,4.3-4.3,11.1,0,15.4l63.6,63.6c10.9,10.9,28.5,10.9,39.3,0l55.1-55.1
				L165.5,295.4z"/>
		</g>
		<g>
			<path class="st1" d="M468.2,280c58.5-58.6,58.4-153.5-0.1-212.1c-56.3-56.3-146.3-58.5-205.2-6.6c-3.9,3.5-9.8,3.5-13.7,0
				C190.2,9.5,100.3,11.7,43.9,68c-58.5,58.5-58.6,153.4-0.1,212.1l204.9,204.9c4,4,10.5,4,14.6,0L468.2,280z"/>
			<g>
				<path class="st2" d="M269.5,351.5l-77.1,77.1l-90.9-90.9l77.1-77.1c18.3-18.3,47.9-18.3,66.1,0l24.8,24.8
					C287.7,303.6,287.7,333.2,269.5,351.5L269.5,351.5z"/>
				<path class="st2" d="M468.2,280L263.3,484.9c-4,4-10.5,4-14.6,0l-20.6-20.6l200-200c58.5-58.6,58.4-153.5-0.1-212.1
					c-9.7-9.7-20.5-17.9-31.9-24.4c26.4,6.1,51.4,19.5,72,40C526.6,126.5,526.6,221.4,468.2,280L468.2,280z"/>
			</g>
		</g>
		<g>
			<g>
				<path class="st3" d="M249.7,331.8l-91,91c-4.3,4.3-11.1,4.3-15.4,0l-20.9-20.9l56.9-56.9l-33.8-33.8l-56.9,56.9l-8.9-8.9
					c-10.9-10.9-10.9-28.5,0-39.3l79-79c18.3-18.3,47.9-18.3,66.2,0l24.8,24.8C268,283.9,268,313.5,249.7,331.8L249.7,331.8z"/>
				<path class="st4" d="M182.7,352.6l-54.8,54.8l-44.7-44.7l54.8-54.8c4.3-4.3,11.1-4.3,15.4,0l29.3,29.3
					C187,341.4,187,348.3,182.7,352.6z"/>
				<path class="st5" d="M249.7,331.8l-22.3,22.3c18.2-18.3,18.1-47.8-0.1-66.1l-24.8-24.8c-18.3-18.3-47.9-18.3-66.2,0l22.4-22.4
					c18.3-18.3,47.9-18.3,66.2,0l24.8,24.8C268,283.9,268,313.5,249.7,331.8L249.7,331.8z"/>
			</g>
		</g>
	</g>
</g>
<circle class="st4" cx="152.3" cy="281.3" r="5.3"/>
<circle class="st4" cx="172.8" cy="299.3" r="5.3"/>
<circle class="st4" cx="191.2" cy="316.3" r="5.3"/>
<circle class="st4" cx="177.1" cy="272" r="5.3"/>
<circle class="st4" cx="197.6" cy="290" r="5.3"/>
<circle class="st4" cx="216" cy="307" r="5.3"/>
<circle class="st4" cx="209.5" cy="331.9" r="5.3"/>
</svg>
